<svg width="62" height="63" viewBox="0 0 62 63" fill="none" xmlns="http://www.w3.org/2000/svg">
    <g clip-path="url(#clip0_0_1)">
        <path d="M27.1904 59.285C25.0819 56.0482 27.4433 52.1324 25.9318 49.9415C24.3693 47.6766 19.6495 47.2672 14.2612 35.3856C12.557 31.6277 11.9192 28.0529 11.9723 24.8255L11.9718 24.8257C11.9718 24.8257 11.6688 24.0052 10.4585 21.7568C9.24817 19.5083 5.67623 21.1224 6.14524 20.3244C8.06188 17.0626 12.4279 16.478 15.2689 13.7246C16.2198 12.2773 17.2647 11.1595 18.2445 10.443C22.3534 7.43764 25.3249 5.73109 32.6521 6.97604C38.5662 7.98085 38.8099 11.4404 40.3082 14.1646C40.3082 14.1646 44.2651 15.2804 43.9607 16.418C43.6563 17.5556 39.4694 16.7916 37.6012 16.9128C35.7997 17.0298 33.0681 16.9865 31.0776 17.8871C31.5996 20.9426 30.8225 25.2684 28.4939 27.0877C26.8646 28.3606 25.5474 27.8662 25.4473 27.5213C25.3549 27.2033 27.2192 24.4195 26.3351 22.1856C25.025 23.8176 23.7047 25.9365 22.796 28.5693C19.0229 39.501 24.2396 46.5445 26.5166 47.9965C28.4132 49.206 28.5598 47.5992 32.635 46.9702C35.5691 46.5171 37.5859 49.2945 37.1227 48.9986C36.6592 48.7027 33.7433 47.8134 32.0528 51.4951C30.3623 55.1768 30.8084 53.6671 29.5482 55.9676C28.2881 58.2682 30.5836 61.7319 30.4289 61.9303C30.2738 62.1279 28.587 61.429 27.1904 59.285Z" fill="black"/>
    </g>
    <path d="M42.95 53V46.2075H49.7425V53H42.95Z" fill="#47B3DF"/>
    <defs>
        <clipPath id="clip0_0_1">
            <rect width="61.0831" height="62.5211" fill="white"/>
        </clipPath>
    </defs>
</svg>
