<svg width="229" height="67" viewBox="0 0 229 67" fill="none" xmlns="http://www.w3.org/2000/svg">
    <path d="M57.0766 51.1051C55.4766 51.1051 54.1566 50.8384 53.1166 50.3051C52.0766 49.7718 51.2499 49.0918 50.6366 48.2651C50.0232 47.4384 49.5699 46.5584 49.2766 45.6251C48.9832 44.6918 48.7899 43.8118 48.6966 42.9851C48.6166 42.1451 48.5766 41.4651 48.5766 40.9451V28.8851H53.4566V39.2851C53.4566 39.9518 53.5032 40.7051 53.5966 41.5451C53.6899 42.3718 53.9032 43.1718 54.2366 43.9451C54.5832 44.7051 55.0899 45.3318 55.7566 45.8251C56.4366 46.3184 57.3499 46.5651 58.4966 46.5651C59.1099 46.5651 59.7166 46.4651 60.3166 46.2651C60.9166 46.0651 61.4566 45.7251 61.9366 45.2451C62.4299 44.7518 62.8232 44.0784 63.1166 43.2251C63.4099 42.3718 63.5566 41.2918 63.5566 39.9851L66.4166 41.2051C66.4166 43.0451 66.0566 44.7118 65.3366 46.2051C64.6299 47.6984 63.5832 48.8918 62.1966 49.7851C60.8099 50.6651 59.1032 51.1051 57.0766 51.1051ZM64.1366 50.4851V43.7851H63.5566V28.8851H68.3966V50.4851H64.1366ZM83.8356 51.0851C81.649 51.0851 79.729 50.6118 78.0756 49.6651C76.4223 48.7184 75.129 47.4051 74.1956 45.7251C73.2756 44.0451 72.8156 42.1118 72.8156 39.9251C72.8156 37.5651 73.269 35.5184 74.1756 33.7851C75.0823 32.0384 76.3423 30.6851 77.9556 29.7251C79.569 28.7651 81.4356 28.2851 83.5556 28.2851C85.7956 28.2851 87.6956 28.8118 89.2556 29.8651C90.829 30.9051 91.9956 32.3784 92.7556 34.2851C93.5156 36.1918 93.8023 38.4384 93.6156 41.0251H88.8356V39.2651C88.8223 36.9184 88.409 35.2051 87.5956 34.1251C86.7823 33.0451 85.5023 32.5051 83.7556 32.5051C81.7823 32.5051 80.3156 33.1184 79.3556 34.3451C78.3956 35.5584 77.9156 37.3384 77.9156 39.6851C77.9156 41.8718 78.3956 43.5651 79.3556 44.7651C80.3156 45.9651 81.7156 46.5651 83.5556 46.5651C84.7423 46.5651 85.7623 46.3051 86.6156 45.7851C87.4823 45.2518 88.149 44.4851 88.6156 43.4851L93.3756 44.9251C92.549 46.8718 91.269 48.3851 89.5356 49.4651C87.8156 50.5451 85.9156 51.0851 83.8356 51.0851ZM76.3956 41.0251V37.3851H91.2556V41.0251H76.3956ZM110.258 51.0851C107.378 51.0851 104.911 50.4584 102.858 49.2051C100.805 47.9384 99.2248 46.1784 98.1181 43.9251C97.0248 41.6718 96.4781 39.0584 96.4781 36.0851C96.4781 33.1118 97.0248 30.4984 98.1181 28.2451C99.2248 25.9918 100.805 24.2384 102.858 22.9851C104.911 21.7184 107.378 21.0851 110.258 21.0851C113.578 21.0851 116.345 21.9184 118.558 23.5851C120.771 25.2384 122.325 27.4718 123.218 30.2851L118.358 31.6251C117.798 29.7451 116.845 28.2784 115.498 27.2251C114.151 26.1584 112.405 25.6251 110.258 25.6251C108.325 25.6251 106.711 26.0584 105.418 26.9251C104.138 27.7918 103.171 29.0118 102.518 30.5851C101.878 32.1451 101.551 33.9784 101.538 36.0851C101.538 38.1918 101.858 40.0318 102.498 41.6051C103.151 43.1651 104.125 44.3784 105.418 45.2451C106.711 46.1118 108.325 46.5451 110.258 46.5451C112.405 46.5451 114.151 46.0118 115.498 44.9451C116.845 43.8784 117.798 42.4118 118.358 40.5451L123.218 41.8851C122.325 44.6984 120.771 46.9384 118.558 48.6051C116.345 50.2584 113.578 51.0851 110.258 51.0851ZM137.149 51.0851C134.989 51.0851 133.103 50.5984 131.489 49.6251C129.876 48.6518 128.623 47.3118 127.729 45.6051C126.849 43.8851 126.409 41.9118 126.409 39.6851C126.409 37.4184 126.863 35.4318 127.769 33.7251C128.676 32.0184 129.936 30.6851 131.549 29.7251C133.163 28.7651 135.029 28.2851 137.149 28.2851C139.323 28.2851 141.216 28.7718 142.829 29.7451C144.443 30.7184 145.696 32.0651 146.589 33.7851C147.483 35.4918 147.929 37.4584 147.929 39.6851C147.929 41.9251 147.476 43.9051 146.569 45.6251C145.676 47.3318 144.423 48.6718 142.809 49.6451C141.196 50.6051 139.309 51.0851 137.149 51.0851ZM137.149 46.5651C139.069 46.5651 140.496 45.9251 141.429 44.6451C142.363 43.3651 142.829 41.7118 142.829 39.6851C142.829 37.5918 142.356 35.9251 141.409 34.6851C140.463 33.4318 139.043 32.8051 137.149 32.8051C135.856 32.8051 134.789 33.0984 133.949 33.6851C133.123 34.2584 132.509 35.0651 132.109 36.1051C131.709 37.1318 131.509 38.3251 131.509 39.6851C131.509 41.7784 131.983 43.4518 132.929 44.7051C133.889 45.9451 135.296 46.5651 137.149 46.5651ZM160.996 51.0851C159.009 51.0851 157.276 50.5851 155.796 49.5851C154.316 48.5851 153.169 47.2251 152.356 45.5051C151.543 43.7851 151.136 41.8451 151.136 39.6851C151.136 37.4984 151.543 35.5518 152.356 33.8451C153.183 32.1251 154.349 30.7718 155.856 29.7851C157.363 28.7851 159.136 28.2851 161.176 28.2851C163.229 28.2851 164.949 28.7851 166.336 29.7851C167.736 30.7718 168.796 32.1251 169.516 33.8451C170.236 35.5651 170.596 37.5118 170.596 39.6851C170.596 41.8318 170.236 43.7718 169.516 45.5051C168.796 47.2251 167.723 48.5851 166.296 49.5851C164.869 50.5851 163.103 51.0851 160.996 51.0851ZM161.736 46.7651C163.029 46.7651 164.069 46.4718 164.856 45.8851C165.656 45.2851 166.236 44.4518 166.596 43.3851C166.969 42.3184 167.156 41.0851 167.156 39.6851C167.156 38.2718 166.969 37.0384 166.596 35.9851C166.236 34.9184 165.669 34.0918 164.896 33.5051C164.123 32.9051 163.123 32.6051 161.896 32.6051C160.603 32.6051 159.536 32.9251 158.696 33.5651C157.856 34.1918 157.236 35.0451 156.836 36.1251C156.436 37.1918 156.236 38.3784 156.236 39.6851C156.236 41.0051 156.429 42.2051 156.816 43.2851C157.216 44.3518 157.823 45.1984 158.636 45.8251C159.449 46.4518 160.483 46.7651 161.736 46.7651ZM167.156 50.4851V35.3251H166.556V21.6851H171.416V50.4851H167.156ZM186.843 51.0851C184.657 51.0851 182.737 50.6118 181.083 49.6651C179.43 48.7184 178.137 47.4051 177.203 45.7251C176.283 44.0451 175.823 42.1118 175.823 39.9251C175.823 37.5651 176.277 35.5184 177.183 33.7851C178.09 32.0384 179.35 30.6851 180.963 29.7251C182.577 28.7651 184.443 28.2851 186.563 28.2851C188.803 28.2851 190.703 28.8118 192.263 29.8651C193.837 30.9051 195.003 32.3784 195.763 34.2851C196.523 36.1918 196.81 38.4384 196.623 41.0251H191.843V39.2651C191.83 36.9184 191.417 35.2051 190.603 34.1251C189.79 33.0451 188.51 32.5051 186.763 32.5051C184.79 32.5051 183.323 33.1184 182.363 34.3451C181.403 35.5584 180.923 37.3384 180.923 39.6851C180.923 41.8718 181.403 43.5651 182.363 44.7651C183.323 45.9651 184.723 46.5651 186.563 46.5651C187.75 46.5651 188.77 46.3051 189.623 45.7851C190.49 45.2518 191.157 44.4851 191.623 43.4851L196.383 44.9251C195.557 46.8718 194.277 48.3851 192.543 49.4651C190.823 50.5451 188.923 51.0851 186.843 51.0851ZM179.403 41.0251V37.3851H194.263V41.0251H179.403Z" fill="white"/>
    <g clip-path="url(#clip0_2015_24)">
        <path d="M27.1903 59.285C25.0818 56.0482 27.4433 52.1324 25.9318 49.9415C24.3693 47.6766 19.6494 47.2672 14.2612 35.3856C12.5569 31.6277 11.9191 28.0529 11.9723 24.8255L11.9717 24.8257C11.9717 24.8257 11.6688 24.0052 10.4585 21.7568C9.24814 19.5083 5.6762 21.1224 6.14521 20.3244C8.06185 17.0626 12.4278 16.478 15.2688 13.7246C16.2198 12.2773 17.2647 11.1595 18.2445 10.443C22.3534 7.43764 25.3249 5.73109 32.652 6.97604C38.5662 7.98085 38.8099 11.4404 40.3082 14.1646C40.3082 14.1646 44.2651 15.2804 43.9607 16.418C43.6562 17.5556 39.4693 16.7916 37.6012 16.9128C35.7997 17.0298 33.0681 16.9865 31.0776 17.8871C31.5995 20.9426 30.8224 25.2684 28.4939 27.0877C26.8646 28.3606 25.5473 27.8662 25.4473 27.5213C25.3549 27.2033 27.2192 24.4195 26.335 22.1856C25.025 23.8176 23.7047 25.9365 22.7959 28.5693C19.0228 39.501 24.2396 46.5445 26.5166 47.9965C28.4132 49.206 28.5598 47.5992 32.635 46.9702C35.5691 46.5171 37.5859 49.2945 37.1227 48.9986C36.6592 48.7027 33.7433 47.8134 32.0528 51.4951C30.3623 55.1768 30.8083 53.6671 29.5482 55.9676C28.2881 58.2682 30.5836 61.7319 30.4288 61.9303C30.2738 62.1279 28.587 61.429 27.1903 59.285Z" fill="white"/>
    </g>
    <defs>
        <clipPath id="clip0_2015_24">
            <rect width="61.0831" height="62.5211" fill="white"/>
        </clipPath>
    </defs>
</svg>
